Coordinates
version=1
nRows=8
nColumns=63
inDegrees=yes

Units are S.I. units (second, meters, Newtons, ...)
If the header above contains a line with 'inDegrees', this indicates whether rotational values are in degrees (yes) or radians (no).

endheader
time	pelvis_tilt	pelvis_list	pelvis_rotation	pelvis_tx	pelvis_ty	pelvis_tz	hip_flexion_r	hip_adduction_r	hip_rotation_r	knee_angle_r	knee_angle_r_beta	ankle_angle_r	subtalar_angle_r	mtp_angle_r	hip_flexion_l	hip_adduction_l	hip_rotation_l	knee_angle_l	knee_angle_l_beta	ankle_angle_l	subtalar_angle_l	mtp_angle_l	L5_S1_Flex_Ext	L5_S1_Lat_Bending	L5_S1_axial_rotation	L4_L5_Flex_Ext	L4_L5_Lat_Bending	L4_L5_axial_rotation	L3_L4_Flex_Ext	L3_L4_Lat_Bending	L3_L4_axial_rotation	L2_L3_Flex_Ext	L2_L3_Lat_Bending	L2_L3_axial_rotation	L1_L2_Flex_Ext	L1_L2_Lat_Bending	L1_L2_axial_rotation	L1_T12_Flex_Ext	L1_T12_Lat_Bending	L1_T12_axial_rotation	Abs_r3	Abs_r2	Abs_r1	Abs_t1	Abs_t2	neck_flexion	neck_bending	neck_rotation	arm_flex_r	arm_add_r	arm_rot_r	elbow_flex_r	pro_sup_r	wrist_flex_r	wrist_dev_r	arm_flex_l	arm_add_l	arm_rot_l	elbow_flex_l	pro_sup_l	wrist_flex_l	wrist_dev_l
      2.55000000	    127.78850834	     28.78618203	   -177.81874889	      0.05247528	      2.91746806	     -0.00851292	     51.84078198	     -9.03395036	      0.16434977	     22.88696546	      0.39945290	     30.07620744	     17.95760806	      0.00000000	     48.85655343	    -19.43627002	    -37.10174639	     37.74572395	      0.65878716	     42.92635384	     13.60773690	      0.00000000	     -0.02505087	     -0.28873529	     -2.71131614	     -0.04652197	     -0.38401793	     -2.88077340	     -0.04115608	     -0.70203098	     -2.88077340	     -0.02863064	     -0.70203098	     -2.37240162	     -0.02326224	     -0.58878900	     -2.20294436	     -0.01431407	     -0.44725096	     -2.03348710	     -0.17893586	     -3.26623132	    -15.07952696	      0.00000000	      0.00000000	     21.72681811	    -13.89708246	     37.73776181	     31.11369092	    -13.98160827	    -28.35257926	     43.05498050	     89.99559364	      0.00000000	      0.00000000	     45.03772577	     36.28818476	    190.80185328	      2.07069618	     89.99559364	      0.00000000	      0.00000000
      2.56666667	    127.93441573	     29.12557873	   -178.43466508	      0.05197347	      2.91849610	     -0.00973605	     51.70334489	     -8.28037108	      0.29011931	     21.95087615	      0.38311506	     29.30253297	     17.67428286	      0.00000000	     49.25848215	    -20.22155767	    -36.83556862	     38.36126540	      0.66953039	     42.89274664	     13.20402149	      0.00000000	     -0.02498827	     -0.19069777	     -2.65357774	     -0.04640571	     -0.25362803	     -2.81942635	     -0.04105323	     -0.46366255	     -2.81942635	     -0.02855909	     -0.46366255	     -2.32188053	     -0.02320411	     -0.38887089	     -2.15603192	     -0.01427830	     -0.29539084	     -1.99018331	     -0.17848870	     -2.15721128	    -14.75840333	      0.00000000	      0.00000000	     23.20957907	    -13.75026288	     39.56436255	     32.65320411	    -15.91588675	    -29.46852580	     42.77485382	     89.99559364	      0.00000000	      0.00000000	     46.19177299	     38.53533470	    203.82973118	      1.33261439	     89.99559364	      0.00000000	      0.00000000
      2.58333333	    128.12186777	     29.34650948	   -179.04043525	      0.05142552	      2.91946622	     -0.01052119	     51.64662275	     -7.67474689	      0.47899388	     21.14174745	      0.36899310	     28.61857621	     17.53875860	      0.00000000	     49.53463200	    -20.80202545	    -36.83769053	     38.67744678	      0.67504879	     42.76282362	     12.90193484	      0.00000000	     -0.02153458	     -0.10512059	     -2.59134944	     -0.03999186	     -0.13981039	     -2.75330878	     -0.03537916	     -0.25559021	     -2.75330878	     -0.02461187	     -0.25559021	     -2.26743076	     -0.01999701	     -0.21436191	     -2.10547142	     -0.01230486	     -0.16283180	     -1.94351208	     -0.15381932	     -1.18914517	    -14.41230817	      0.00000000	      0.00000000	     23.62107650	    -13.74991281	     39.95482090	     33.73402972	    -18.37690410	    -28.94010040	     42.38060197	     89.99559364	      0.00000000	      0.00000000	     47.35846027	     40.59223217	    204.37967779	      0.98439106	     89.99559364	      0.00000000	      0.00000000
      2.60000000	    128.27337984	     29.40370852	   -179.69423751	      0.05074300	      2.92023347	     -0.01075458	     51.56395926	     -7.18542694	      0.79715511	     20.35987883	      0.35534692	     27.79684762	     17.51855724	      0.00000000	     49.58682333	    -21.16186342	    -36.97599229	     38.72319938	      0.67584733	     42.68301338	     12.50329718	      0.00000000	     -0.02065250	     -0.03302951	     -2.51000569	     -0.03835376	     -0.04392924	     -2.66688105	     -0.03392999	     -0.08030794	     -2.66688105	     -0.02360374	     -0.08030794	     -2.19625498	     -0.01917791	     -0.06735377	     -2.03937963	     -0.01180084	     -0.05116271	     -1.88250427	     -0.14751874	     -0.37363638	    -13.95989866	      0.00000000	      0.00000000	     23.89048113	    -13.89692371	     40.41472807	     34.55727320	    -20.91290412	    -28.03672126	     41.90027221	     89.99559364	      0.00000000	      0.00000000	     47.92799012	     42.90464156	    205.16790969	      0.80795198	     89.99559364	      0.00000000	      0.00000000
      2.61666667	    128.39606357	     29.54742256	   -180.03767800	      0.05035997	      2.92090895	     -0.01002731	     51.22519151	     -6.83451964	      1.39804051	     19.30151481	      0.33687498	     27.12506121	     17.07150244	      0.00000000	     49.77661068	    -21.41338478	    -36.95169011	     39.01783285	      0.68098965	     42.51192380	     12.41604656	      0.00000000	     -0.01802898	      0.05738878	     -2.47671504	     -0.03348161	      0.07632707	     -2.63150973	     -0.02961980	      0.13953507	     -2.63150973	     -0.02060532	      0.13953507	     -2.16712566	     -0.01674171	      0.11702719	     -2.01233097	     -0.01030176	      0.08889521	     -1.85753628	     -0.12877917	      0.64919330	    -13.77474605	      0.00000000	      0.00000000	     24.55467255	    -15.68859192	     41.45832919	     35.15447183	    -23.70731879	    -26.39590307	     41.31379309	     89.99559364	      0.00000000	      0.00000000	     47.46851308	     45.73767702	    220.64722531	      0.56706739	     89.99559364	      0.00000000	      0.00000000
      2.63333333	    128.58144414	     29.68912295	   -180.47630104	      0.05010103	      2.92137811	     -0.00895884	     50.82924287	     -6.51462747	      1.84913896	     18.01570820	      0.31443343	     26.28422211	     17.08943996	      0.00000000	     49.92354602	    -21.62458080	    -36.94393046	     39.13903725	      0.68310507	     42.44282171	     12.22702228	      0.00000000	     -0.01629098	      0.14904087	     -2.49109724	     -0.03025398	      0.19822436	     -2.64679082	     -0.02676445	      0.36237798	     -2.64679082	     -0.01861896	      0.36237798	     -2.17971008	     -0.01512780	      0.30392415	     -2.02401651	     -0.00930867	      0.23086431	     -1.86832293	     -0.11636483	      1.68598015	    -13.85473551	      0.00000000	      0.00000000	     24.65988126	    -15.69284468	     41.91078625	     35.89112817	    -26.08760423	    -24.72221374	     40.61000204	     89.99559364	      0.00000000	      0.00000000	     46.74807312	     48.40723460	    222.65507346	      0.48225954	     89.99559364	      0.00000000	      0.00000000
      2.65000000	    128.72745678	     29.69069518	   -180.75790756	      0.04987277	      2.92185847	     -0.00813894	     50.57725795	     -6.33382793	      2.68180559	     17.09025524	      0.29828122	     25.69241285	     16.53325371	      0.00000000	     50.02415169	    -21.64072612	    -36.88667169	     39.18124410	      0.68384171	     42.31711672	     12.12082269	      0.00000000	     -0.01433825	      0.21526157	     -2.54286488	     -0.02662756	      0.28629789	     -2.70179394	     -0.02355630	      0.52338698	     -2.70179394	     -0.01638718	      0.52338698	     -2.22500677	     -0.01331449	      0.43896139	     -2.06607772	     -0.00819287	      0.33344017	     -1.90714866	     -0.10241665	      2.43508191	    -14.14265161	      0.00000000	      0.00000000	     24.89814960	    -16.70158469	     42.36866621	     36.56751009	    -27.85727284	    -23.82762275	     39.94900419	     89.99559364	      0.00000000	      0.00000000	     45.04777066	     51.18499757	    240.59222945	      0.34352787	     89.99559364	      0.00000000	      0.00000000
      2.66666667	    128.91832698	     29.84545722	   -181.08017701	      0.04982866	      2.92218750	     -0.00755064	     50.23000783	     -6.06896017	      3.05835400	     15.91943315	      0.27784652	     25.03254098	     16.46578517	      0.00000000	     50.20251892	    -21.83769941	    -36.75764601	     39.23744273	      0.68482257	     42.27933524	     12.10957003	      0.00000000	     -0.01235254	      0.30079989	     -2.65891602	     -0.02293990	      0.40006386	     -2.82509827	     -0.02029399	      0.73136486	     -2.82509827	     -0.01411772	      0.73136486	     -2.32655152	     -0.01147057	      0.61339114	     -2.16036927	     -0.00705824	      0.46593904	     -1.99418702	     -0.08823297	      3.40270857	    -14.78809324	      0.00000000	      0.00000000	     24.92626013	    -16.75056155	     42.71912344	     37.43510789	    -29.19432596	    -22.76431512	     39.27534419	     89.99559364	      0.00000000	      0.00000000	     43.95186727	     53.57528422	    242.54882134	      0.28665637	     89.99559364	      0.00000000	      0.00000000
